<svg xmlns="http://www.w3.org/2000/svg" viewBox="0 0 512 512" width="512" height="512">
  <!-- Transparent background (no rect needed) -->
  <!-- Purple brain icon -->
  <g fill="#a855f7">
    <!-- Main brain shape with folds -->
    <path d="M256 64c-54.7 0-101.9 30.4-126.3 75.2-10.1-2.2-20.7-3.2-31.7-3.2-79.5 0-144 64.5-144 144s64.5 144 144 144c11 0 21.6-1.1 31.7-3.2C154.1 465.6 201.3 496 256 496s101.9-30.4 126.3-75.2c10.1 2.2 20.7 3.2 31.7 3.2 79.5 0 144-64.5 144-144s-64.5-144-144-144c-11 0-21.6 1.1-31.7 3.2C357.9 94.4 310.7 64 256 64zm0 48c35.3 0 66.6 18.1 84.8 45.6-11.2 9.3-21.2 20.3-29.6 32.6-15.5-12.9-35.4-20.6-56.8-20.6s-41.3 7.7-56.8 20.6c-8.4-12.3-18.4-23.3-29.6-32.6C186.4 130.1 217.7 112 256 112z"/>
    <!-- Additional brain detail curves -->
    <ellipse cx="180" cy="220" rx="35" ry="45" opacity="0.7"/>
    <ellipse cx="332" cy="220" rx="35" ry="45" opacity="0.7"/>
    <path d="M200 310c20-15 36-15 56 0s36 15 56 0" stroke="#8b5cf6" stroke-width="8" fill="none" opacity="0.8"/>
  </g>
</svg>
